<mxfile host="app.diagrams.net" modified="2024-05-15T07:39:12.192Z" agent="Mozilla/5.0 (Windows NT 10.0; Win64; x64) AppleWebKit/537.36 (KHTML, like Gecko) Chrome/124.0.0.0 Safari/537.36" version="24.4.0" etag="I0LQBaSpxQtnm7NCGqDK" type="github">
  <diagram name="第 1 页" id="o03zFj8WUJ9jCX31KFP9">
    <mxGraphModel>
      <root>
        <mxCell id="0" />
        <mxCell id="1" parent="0" />
      </root>
    </mxGraphModel>
  </diagram>
</mxfile>
